<svg viewBox="0 0 1024 1024" xmlns="http://www.w3.org/2000/svg"><path d="M433.472 192H253.44a61.44 61.44 0 0 0-61.44 61.44v180.032c0 33.92 27.52 61.44 61.44 61.44h180.032c33.92 0 61.44-27.52 61.44-61.44V253.44a61.44 61.44 0 0 0-61.44-61.44z m0 393.216H253.44a61.44 61.44 0 0 0-61.44 61.44v180.032c0 33.92 27.52 61.44 61.44 61.44h180.032c33.92 0 61.44-27.52 61.44-61.44v-180.032c0-33.792-27.52-61.44-61.44-61.44zM826.88 192h-180.032a61.44 61.44 0 0 0-61.44 61.44v180.032c0 33.92 27.52 61.44 61.44 61.44h180.032c33.92 0 61.44-27.52 61.44-61.44V253.44a61.44 61.44 0 0 0-61.44-61.44z m0 393.216h-180.032a61.44 61.44 0 0 0-61.44 61.44v180.032c0 33.92 27.52 61.44 61.44 61.44h180.032c33.92 0 61.44-27.52 61.44-61.44v-180.032c0-33.792-27.52-61.44-61.44-61.44z"/></svg>