<svg viewBox="0 0 1024 1024" xmlns="http://www.w3.org/2000/svg"><path d="M0 0h1024v1024H0z" fill="#FFFFFF" fill-opacity=".01"/><path d="M438.857143 548.571429a36.571429 36.571429 0 0 1 36.571428 36.571428v292.571429a36.571429 36.571429 0 0 1-36.571428 36.571428H146.285714a36.571429 36.571429 0 0 1-36.571428-36.571428V585.142857a36.571429 36.571429 0 0 1 36.571428-36.571428h292.571429z m438.857143 0a36.571429 36.571429 0 0 1 36.571428 36.571428v292.571429a36.571429 36.571429 0 0 1-36.571428 36.571428H585.142857a36.571429 36.571429 0 0 1-36.571428-36.571428V585.142857a36.571429 36.571429 0 0 1 36.571428-36.571428h292.571429z m-438.857143-438.857143a36.571429 36.571429 0 0 1 36.571428 36.571428v292.571429a36.571429 36.571429 0 0 1-36.571428 36.571428H146.285714a36.571429 36.571429 0 0 1-36.571428-36.571428V146.285714a36.571429 36.571429 0 0 1 36.571428-36.571428h292.571429z m438.857143 292.571428a36.571429 36.571429 0 1 1 0 73.142857H585.142857a36.571429 36.571429 0 0 1 0-73.142857h292.571429z m0-146.285714a36.571429 36.571429 0 1 1 0 73.142857H585.142857a36.571429 36.571429 0 0 1 0-73.142857h292.571429z m-146.285715-146.285714a36.571429 36.571429 0 1 1 0 73.142857H585.142857a36.571429 36.571429 0 0 1 0-73.142857h146.285714z" fill="#5A6677"/></svg>