<svg viewBox="0 0 1024 1024" xmlns="http://www.w3.org/2000/svg"><path d="M106.666667 789.12a21.333333 21.333333 0 0 0-21.333334 21.333333v42.666667a21.333333 21.333333 0 0 0 21.333334 21.333333h810.666666a21.333333 21.333333 0 0 0 21.333334-21.333333v-42.666667a21.333333 21.333333 0 0 0-21.333334-21.333333h-810.666666zM768.298667 380.16L768 383.786667v256a21.333333 21.333333 0 0 0 33.621333 17.493333l2.816-2.389333 128-128a21.333333 21.333333 0 0 0 2.432-27.221334l-2.432-2.986666-128-128a21.333333 21.333333 0 0 0-36.138666 11.434666zM106.666667 575.786667a21.333333 21.333333 0 0 0-21.333334 21.333333v42.666667a21.333333 21.333333 0 0 0 21.333334 21.333333h512a21.333333 21.333333 0 0 0 21.333333-21.333333v-42.666667a21.333333 21.333333 0 0 0-21.333333-21.333333h-512z m0-213.333334a21.333333 21.333333 0 0 0-21.333334 21.333334v42.666666a21.333333 21.333333 0 0 0 21.333334 21.333334h512a21.333333 21.333333 0 0 0 21.333333-21.333334v-42.666666a21.333333 21.333333 0 0 0-21.333333-21.333334h-512z m0-213.333333a21.333333 21.333333 0 0 0-21.333334 21.333333v42.666667a21.333333 21.333333 0 0 0 21.333334 21.333333h810.666666a21.333333 21.333333 0 0 0 21.333334-21.333333v-42.666667a21.333333 21.333333 0 0 0-21.333334-21.333333h-810.666666z"/></svg>