<svg viewBox="0 0 1024 1024" xmlns="http://www.w3.org/2000/svg"><path d="M512 64C264.58 64 64 264.58 64 512s200.58 448 448 448 448-200.58 448-448S759.42 64 512 64zM298.72 718.37h-20.59c-10.5 0-19.35-8.85-19.35-19.62 0-10.64 8.85-19.63 19.35-19.63h20.59c10.5 0 19.49 8.99 19.49 19.63 0 10.77-8.99 19.62-19.49 19.62z m0-124.67h-20.59c-10.5 0-19.35-8.7-19.35-19.35 0-10.79 8.85-19.63 19.35-19.63h20.59c10.5 0 19.49 8.85 19.49 19.63 0 10.64-8.99 19.35-19.49 19.35z m0-124.69h-20.59c-10.5 0-19.35-8.85-19.35-19.49 0-10.77 8.85-19.49 19.35-19.49h20.59c10.5 0 19.49 8.72 19.49 19.49 0 10.65-8.99 19.49-19.49 19.49z m0-124.67h-20.59c-10.5 0-19.35-8.72-19.35-19.36 0-10.77 8.85-19.35 19.35-19.35h20.59c10.5 0 19.49 8.58 19.49 19.35 0 10.64-8.99 19.36-19.49 19.36z m446.89 374.03H418.29c-10.52 0-19.36-8.85-19.36-19.62 0-10.64 8.85-19.63 19.36-19.63H745.6c10.77 0 19.62 8.99 19.62 19.63 0 10.77-8.84 19.62-19.61 19.62z m0-124.67H418.29c-10.52 0-19.36-8.7-19.36-19.35 0-10.79 8.85-19.63 19.36-19.63H745.6c10.77 0 19.62 8.85 19.62 19.63 0 10.64-8.84 19.35-19.61 19.35z m0-124.69H418.29c-10.52 0-19.36-8.85-19.36-19.49 0-10.77 8.85-19.49 19.36-19.49H745.6c10.77 0 19.62 8.72 19.62 19.49 0 10.65-8.84 19.49-19.61 19.49z m0-124.67H418.29c-10.52 0-19.36-8.72-19.36-19.36 0-10.77 8.85-19.35 19.36-19.35H745.6c10.77 0 19.62 8.58 19.62 19.35 0 10.64-8.84 19.36-19.61 19.36z" fill="#717071"/></svg>