<svg viewBox="0 0 1024 1024" xmlns="http://www.w3.org/2000/svg"><path d="M43.085 1003.29A20.72 20.72 0 0 0 63.795 1024h638a20.69 20.69 0 0 0 14.65-6.08L803.305 931a20.7 20.7 0 0 0 6-14.64V135a20.69 20.69 0 0 0-20.71-20.71H63.795A20.71 20.71 0 0 0 43.085 135z" fill="#8DC5FF"/><path d="M686.295 994.58a10.35 10.35 0 0 0 17.68 7.32l83-83a10.37 10.37 0 0 0-7.33-17.69h-83a10.36 10.36 0 0 0-10.36 10.36z" fill="#FFFFFF"/><path d="M149.225 468.37a20 20 0 0 0 20 20h403.33a20 20 0 1 0 0-40H169.225a20 20 0 0 0-20 20zM155.085 638.14A20 20 0 0 1 169.225 604h403.33a20 20 0 1 1 0 40H169.225a20 20 0 0 1-14.14-5.86z m0 155.63a20 20 0 0 1 14.14-34.15h403.33a20 20 0 1 1 0 40H169.225a20 20 0 0 1-14.14-5.85zM682.355 818.07h-72.63v-72.64h72.63zM620.085 807.71h51.93v-51.92H620.085z m62.28-146.53h-72.64v-72.64h72.63zM620.085 650.83h51.93V598.9H620.085z m62.28-145.25h-72.64v-72.64h72.63zM620.085 495.22h51.93V443.3H620.085z" fill="#FFFFFF"/><path d="M646.335 632l-43.55-50 7.81-6.81 37 42.48 81.14-65.48 6.51 8.07z m0-152.44l-43.55-50 7.81-6.81 37 42.48 81.14-65.47 6.51 8.06z" fill="#FFA83B"/><path d="M744.005 195.45a5.82 5.82 0 1 0 5.82 5.81 5.81 5.81 0 0 0-5.82-5.81z" fill="#FFFFFF"/><path d="M694.465 215.44l-22-27.9v19.53h-5.8V170.8l22 27.9v-19.53h5.8z m22.13-5.44a16.85 16.85 0 1 1 16.85-16.85A16.86 16.86 0 0 1 716.595 210z m0-27.9a11.05 11.05 0 1 0 11 11.05 11.07 11.07 0 0 0-11-11.08z m47.2 27.33h-5.8v-32.58h5.8z" fill="#FFFFFF"/><path d="M627.325 276.72l21.07-40.79s-15.69 19.72-46.62 27.79-65.05 7.17-65.05 7.17v40.38s47.12-1.34 80.74-8.55 59.61-26 59.61-26z m-392.35 26c33.62 7.21 80.74 8.55 80.74 8.55v-40.38s-34.12 0.9-65-7.17S204.085 235.93 204.085 235.93l21 40.79h-49.72s26 18.78 59.61 26zM492.995 351.2h-10.23L485.085 225.47h5.68z m11.75 0h-10.23l2.28-125.73h5.68zM361.135 269.47a16.9 16.9 0 0 0 8.38-7.41c6.67-11.22 5.34-22.68-3-30.64-4.06-3.87-5.7-5.95-10.36-5.95s-6.28 1.89-10.25 5.95c-7.74 7.91-9.69 19.71-3 30.64a17.27 17.27 0 0 0 8.55 7.4l-2.72 81.72h15.12z" fill="#FFFFFF"/><path d="M426.215 334.74a46.42 46.42 0 1 1 46.42-46.42 46.47 46.47 0 0 1-46.42 46.42z m0-82.83a36.42 36.42 0 1 0 36.42 36.41 36.46 36.46 0 0 0-36.42-36.41z" fill="#FFFFFF"/><path d="M426.225 320.4a32.07 32.07 0 1 1 32.07-32.07 32.11 32.11 0 0 1-32.07 32.07z m0-59.64a27.57 27.57 0 1 0 27.57 27.57 27.6 27.6 0 0 0-27.57-27.57z" fill="#FFFFFF"/><path d="M523.505 63.56H611.085a20.71 20.71 0 0 1 20.71 20.71v62.47H220.635V84.27a20.71 20.71 0 0 1 20.72-20.71h87.59V20.71A20.72 20.72 0 0 1 349.635 0h153.18a20.71 20.71 0 0 1 20.71 20.71v41.76c0 0.36-0.01 0.73-0.02 1.09z" fill="#63A2E6"/><path d="M249.685 101.52a5 5 0 0 0 5 5h345a5 5 0 0 0 5-5v-8a5 5 0 0 0-5-5h-345a5 5 0 0 0-5 5z m0 24a5 5 0 0 0 5 5h345a5 5 0 0 0 5-5v-1.08a5 5 0 0 0-5-5h-345a5 5 0 0 0-5 5z" fill="#FFFFFF"/><path d="M699.575 514.67L758.225 557l190.92-264.29-58.64-42.36z" fill="#FFA83B"/><path d="M745.755 501.64l147.54-204.25a5.47 5.47 0 1 0-8.87-6.41L736.885 495.23a5.47 5.47 0 1 0 8.87 6.41z m20 16.42L913.335 313.8a5.47 5.47 0 0 0-5.3-8.61 5.53 5.53 0 0 0-3.57 2.2L756.925 511.65a5.47 5.47 0 1 0 8.87 6.41z" fill="#FFFFFF"/><path d="M892.505 240.81l65.79 47.52 21.41-29.64a6.4 6.4 0 0 0-1.44-8.93l-55.42-40a6.4 6.4 0 0 0-8.93 1.44z" fill="#FFA83B"/><path d="M753.465 560.12l-56.78-41-20.88 80.76a5 5 0 0 0 7.55 5.45z" fill="#FFA83B"/></svg>