<svg viewBox="0 0 1024 1024" xmlns="http://www.w3.org/2000/svg"><path d="M178.5856 187.904m37.5808 0l206.6432 0q37.5808 0 37.5808 37.5808l0 206.6432q0 37.5808-37.5808 37.5808l-206.6432 0q-37.5808 0-37.5808-37.5808l0-206.6432q0-37.5808 37.5808-37.5808Z" fill="#BFCBD8"/><path d="M563.712 187.904m37.5808 0l206.6432 0q37.5808 0 37.5808 37.5808l0 206.6432q0 37.5808-37.5808 37.5808l-206.6432 0q-37.5808 0-37.5808-37.5808l0-206.6432q0-37.5808 37.5808-37.5808Z" fill="#BFCBD8"/><path d="M178.5856 554.2912m37.5808 0l206.6432 0q37.5808 0 37.5808 37.5808l0 206.6432q0 37.5808-37.5808 37.5808l-206.6432 0q-37.5808 0-37.5808-37.5808l0-206.6432q0-37.5808 37.5808-37.5808Z" fill="#BFCBD8"/><path d="M563.712 554.2912m37.5808 0l206.6432 0q37.5808 0 37.5808 37.5808l0 206.6432q0 37.5808-37.5808 37.5808l-206.6432 0q-37.5808 0-37.5808-37.5808l0-206.6432q0-37.5808 37.5808-37.5808Z" fill="#BFCBD8"/></svg>