<svg viewBox="0 0 1024 1024" xmlns="http://www.w3.org/2000/svg"><path d="M452.266667 529.066667a42.666667 42.666667 0 0 1 42.666666 42.666666V896a42.666667 42.666667 0 0 1-42.666666 42.666667H128a42.666667 42.666667 0 0 1-42.666667-42.666667V571.733333a42.666667 42.666667 0 0 1 42.666667-42.666666h324.266667z m443.733333 0a42.666667 42.666667 0 0 1 42.666667 42.666666V896a42.666667 42.666667 0 0 1-42.666667 42.666667H571.733333a42.666667 42.666667 0 0 1-42.666666-42.666667V571.733333a42.666667 42.666667 0 0 1 42.666666-42.666666H896zM452.266667 85.333333a42.666667 42.666667 0 0 1 42.666666 42.666667v324.266667a42.666667 42.666667 0 0 1-42.666666 42.666666H128a42.666667 42.666667 0 0 1-42.666667-42.666666V128a42.666667 42.666667 0 0 1 42.666667-42.666667h324.266667zM896 85.333333a42.666667 42.666667 0 0 1 42.666667 42.666667v324.266667a42.666667 42.666667 0 0 1-42.666667 42.666666H571.733333a42.666667 42.666667 0 0 1-42.666666-42.666666V128a42.666667 42.666667 0 0 1 42.666666-42.666667H896z" fill="#717378"/></svg>