<svg viewBox="0 0 1116 1024" xmlns="http://www.w3.org/2000/svg"><path d="M168.377451 251.845793l4.898602-239.551262s1.921021-15.94447 39.669074 9.605103l343.382422 219.668699L914.309727 11.814276s26.702186-16.904981 26.990339 3.361786v235.997374" fill="#FFFFFF"/><path d="M173.180002 251.941844h-9.605103l4.898603-239.551262a10.949817 10.949817 0 0 1 6.243316-8.45249c8.068286-3.74599 21.419379 0.768408 40.917738 13.735297l340.692993 218.035832 355.3888-228.12119c2.977582-1.82497 18.153644-10.949817 27.758747-5.763061a13.543195 13.543195 0 0 1 6.627521 13.062939v236.093425h-9.605103V15.176062c0-1.728918 0-4.034143-1.632867-4.7065-3.265735-1.82497-12.486634 2.017072-17.961542 5.474908L556.327549 247.235344l-345.783698-220.917363c-22.091736-14.695807-29.583716-13.735297-31.408685-13.15899a1.632867 1.632867 0 0 0-0.960511 0.768408z"/><path d="M555.46309 242.624894v775.131789L25.741675 880.403714S2.881531 865.707907 4.514398 792.132821V168.857706s6.53147-75.207954 86.445925-57.630617l461.04493 127.555764 462.677797-122.657161s93.265547-13.06294 96.051027 45.81634l-0.576306 669.667761s-3.361786 42.454554-34.386267 48.986024l-521.364976 137.352968z" fill="#ED9B2F"/><path d="M549.603977 1023.711847v-2.881531L24.204859 884.62996h-0.672357c-0.96051-0.672357-25.069318-17.001032-23.436451-92.401088v-623.371166a78.665791 78.665791 0 0 1 28.815308-52.732014c16.328675-12.006378 37.844105-15.080011 64.066035-9.124848l460.08442 127.17156 461.04493-122.272957c2.881531 0 57.05431-7.684082 85.581465 15.752368a45.720289 45.720289 0 0 1 16.904981 34.386268l-1.632867 669.57171c0 2.209174-4.034143 46.488697-38.420411 53.692524l-515.794016 135.816152v2.881531l-5.474908-1.440765zM28.335053 875.793265l521.364975 135.143795 0.96051-767.255604L90.095863 116.605947c-23.148298-5.186755-42.07035-2.593378-55.997748 7.588031a69.444893 69.444893 0 0 0-24.589063 45.432136v622.506707c-1.152612 63.009474 15.752368 81.067067 18.826001 83.948597z m531.450333-633.456524h0.96051v768.408217l513.872995-135.335897c27.374543-5.763062 30.736329-44.375575 30.83238-44.759779l1.632867-668.323046a36.49939 36.49939 0 0 0-13.447143-27.278492c-25.26142-20.747022-76.840822-13.831348-77.60923-13.735297z"/><path d="M741.60998 733.829847a18.249695 18.249695 0 0 1-18.249695-17.289185l-4.034143-75.400056h-2.593378a80.874965 80.874965 0 0 1-63.297627-25.165369 81.835475 81.835475 0 0 1-22.091736-64.642341 83.276241 83.276241 0 0 1 78.953944-72.90273l39.476973-2.113123a86.445924 86.445924 0 0 1 172.315542-9.605102l40.725636-2.113123a83.372292 83.372292 0 0 1 86.445924 63.969984 81.739424 81.739424 0 0 1-75.496107 98.932558h-5.57096l4.130194 77.801332a15.848419 15.848419 0 0 1-14.98396 16.712879l-214.866147 11.526123z m-13.255041-102.774599l4.610449 85.005159a8.548541 8.548541 0 0 0 9.124847 8.164337l214.866148-11.526123a6.243317 6.243317 0 0 0 5.859113-6.53147l-4.706501-87.502485 15.272114-0.768409a72.03827 72.03827 0 0 0 66.371259-86.926179 73.479036 73.479036 0 0 0-76.840821-56.381953l-49.56233 2.593378-0.480255-4.514399a76.956083 76.956083 0 0 0-153.681644 8.35644v4.802551l-48.025513 2.593378a73.479036 73.479036 0 0 0-69.925148 64.258137 71.942219 71.942219 0 0 0 75.304005 79.338148z"/><path d="M780.318544 666.498077l-12.102429-6.051215-11.334021 7.299878 2.017071-13.351092-10.469562-8.548542 13.351093-2.209173 4.898602-12.582685 6.147266 12.006378 13.543195 0.768409-9.509052 9.605102 3.457837 13.06294zM856.967264 662.367883l-12.10243-6.051215-11.334021 7.299878 2.017072-13.351092-10.469562-8.548542 13.351093-2.209174 4.898602-12.582684 6.147266 12.006378 13.447144 0.768409-9.413001 9.605102 3.457837 13.06294zM933.519932 658.237689l-12.006378-6.051215-11.430072 7.299878 2.113122-13.351093-10.469562-8.548541 13.255042-2.113123 4.898603-12.582684 6.243316 11.910327 13.447144 0.768408-9.509052 9.605103 3.457837 13.06294z" fill="#FFFF00"/></svg>