<svg viewBox="0 0 1024 1024" xmlns="http://www.w3.org/2000/svg"><path d="M361.411765 87.341176H210.823529c-66.258824 0-120.470588 54.211765-120.470588 120.470589V361.411765c0 66.258824 54.211765 120.470588 120.470588 120.470588h271.058824V207.811765c0-66.258824-54.211765-120.470588-120.470588-120.470589zM813.176471 87.341176h-150.588236c-66.258824 0-120.470588 54.211765-120.470588 120.470589V481.882353h271.058824c66.258824 0 120.470588-54.211765 120.470588-120.470588V207.811765c0-66.258824-51.2-120.470588-120.470588-120.470589z m90.352941 274.070589c0 51.2-39.152941 90.352941-90.352941 90.352941h-240.941177V207.811765c0-51.2 39.152941-90.352941 90.352941-90.352941h150.588236c51.2 0 90.352941 39.152941 90.352941 90.352941V361.411765zM90.352941 662.588235v150.588236c0 66.258824 54.211765 120.470588 120.470588 120.470588h150.588236c66.258824 0 120.470588-54.211765 120.470588-120.470588v-271.058824H210.823529c-66.258824 0-120.470588 51.2-120.470588 120.470588z m361.411765 150.588236c0 51.2-39.152941 90.352941-90.352941 90.352941H210.823529c-51.2 0-90.352941-39.152941-90.352941-90.352941v-150.588236c0-51.2 39.152941-90.352941 90.352941-90.352941h240.941177v240.941177z"/><path d="M177.694118 689.694118v96.37647c0 33.129412 27.105882 60.235294 60.235294 60.235294h96.37647c33.129412 0 60.235294-27.105882 60.235294-60.235294v-156.611764H237.929412c-33.129412 0-60.235294 27.105882-60.235294 60.235294zM813.176471 542.117647h-271.058824v271.058824c0 66.258824 54.211765 120.470588 120.470588 120.470588h150.588236c66.258824 0 120.470588-54.211765 120.470588-120.470588v-150.588236c0-69.270588-51.2-120.470588-120.470588-120.470588z"/></svg>