<svg viewBox="0 0 1024 1024" xmlns="http://www.w3.org/2000/svg"><path d="M138.24 9.721519h532.181873l282.079595 280.990785v658.548658a62.632506 62.632506 0 0 1-62.632506 62.645468H138.24a62.632506 62.632506 0 0 1-62.645468-62.632506V72.341063A62.645468 62.645468 0 0 1 138.24 9.721519z" fill="#3DB39E"/><path d="M951.607089 291.580759H733.261772a62.65843 62.65843 0 0 1-62.632506-62.632506V10.343696l280.964861 281.237063z" fill="#2F8A78"/><path d="M263.517975 416.858734v407.137215h501.073012V416.858734H263.517975z m375.808 31.316253v62.632507h-62.632507v-62.632507h62.632507z m-187.910481 156.581266h-62.632507v-62.606582h62.632507v62.606582z m31.316253-62.59362h62.632506v62.606582h-62.632506v-62.606582z m-31.316253 93.948759v62.606583h-62.632507v-62.606583h62.632507z m31.316253 0h62.632506v62.606583h-62.632506v-62.606583z m93.961721 0h62.632507v62.606583h-62.632507v-62.606583z m0-31.342177v-62.606582h62.632507v62.606582h-62.632507z m-31.316253-156.594228v62.632507h-62.645468v-62.632507h62.632506z m-93.961721 0v62.632507h-62.632507v-62.632507h62.632507z m-156.581266 0h62.632506v62.632507h-62.645468v-62.632507z m0 93.987646h62.632506v62.606582h-62.645468v-62.606582z m0 93.948759h62.632506v62.606583h-62.645468v-62.606583z m0 156.594228v-62.671392h62.632506v62.671392h-62.645468z m93.948759 0v-62.671392h62.632507v62.671392h-62.632507z m93.94876 0v-62.671392h62.632506v62.671392h-62.632506z m93.961721 0v-62.671392h62.632507v62.671392h-62.632507z m156.581266 0H670.65519v-62.671392h62.645468v62.671392z m0-93.974683H670.65519v-62.606583h62.645468v62.606583z m0-93.974684H670.65519v-62.606582h62.645468v62.606582z m0-93.948759H670.65519v-62.632507h62.645468v62.632507z" fill="#8BD1C5"/></svg>