<svg viewBox="0 0 1124 1024" xmlns="http://www.w3.org/2000/svg"><path d="M948.079775 106.337352H460.223099S394.153465 1.788394 355.688563 1.788394H181.435493a69.68969 69.68969 0 0 0-69.68969 69.704113v801.474704a69.718535 69.718535 0 0 0 69.68969 69.68969h766.629859a69.718535 69.718535 0 0 0 69.68969-69.68969V176.027042a69.718535 69.718535 0 0 0-69.68969-69.68969z" fill="#D0994B"/><path d="M111.745803 210.871887h906.023662v278.787606H111.745803z" fill="#E4E7E7"/><path d="M76.900958 280.561577h975.713352a69.68969 69.68969 0 0 1 69.704113 69.704113L1052.628732 942.656901a69.718535 69.718535 0 0 1-69.704112 69.689691H146.60507a69.718535 69.718535 0 0 1-69.704112-69.689691L7.211268 350.26569a69.68969 69.68969 0 0 1 69.68969-69.704113z" fill="#F4B459"/></svg>