<svg viewBox="0 0 1024 1024" xmlns="http://www.w3.org/2000/svg"><path d="M138.24 9.721519h532.181873l282.079595 280.990785v658.548658a62.632506 62.632506 0 0 1-62.632506 62.645468H138.24a62.632506 62.632506 0 0 1-62.645468-62.632506V72.341063A62.645468 62.645468 0 0 1 138.24 9.721519z" fill="#26A6D1"/><path d="M405.192911 445.077063h-55.438582c-15.658127 0-24.394532 9.708557-24.394532 24.394532v175.920608c0 15.658127 9.980759 24.394532 23.461266 24.394531 13.467544 0 23.48719-8.775291 23.48719-24.394531v-51.368507h34.738228c42.865418 0 78.251747-28.464608 78.251747-74.194633 0.038886-44.718987-34.090127-74.752-80.105317-74.752z m-0.946227 107.662583h-31.938431v-66.326684h31.938431c19.728203 0 32.223595 14.374886 32.223594 33.169823 0 18.756051-12.48243 33.169823-32.223594 33.169823z m188.467848-46.002228c0-13.143494 12.262076-20.324456 25.690734-20.324456 18.794937 0 28.775696 9.397468 41.621063 9.397468 12.806481 0 20.946633-10.991797 20.946633-23.176101 0-24.70562-43.772759-31.290329-61.31038-31.290329-41.659949 0-77.642532 27.220253-77.642531 71.070785 0 72.587342 104.564658 50.383392 104.564658 87.338126 0 15.347038-11.276962 26.935089-31.977317 26.935089-20.28557 0-37.888-12.210228-52.61286-12.210228-12.806481 0-20.946633 9.954835-20.946633 22.20395 0 29.371949 51.977722 35.049316 76.061164 35.049316 43.189468 0 80.209013-27.907241 80.209013-72.600304 0-80.805266-104.603544-60.195646-104.603544-92.393316z" fill="#FFFFFF"/><path d="M951.607089 291.580759H733.261772a62.65843 62.65843 0 0 1-62.632506-62.632506V10.343696l280.964861 281.237063z" fill="#1E7EA0"/></svg>