<svg viewBox="0 0 1024 1024" xmlns="http://www.w3.org/2000/svg"><path d="M133.448205 6.564103h539.004718l285.696 284.59323v666.99159a63.435487 63.435487 0 0 1-63.435487 63.448615H133.448205a63.435487 63.435487 0 0 1-63.448615-63.435487V69.986462A63.448615 63.448615 0 0 1 133.448205 6.564103z" fill="#E4E7E7"/><path d="M957.243077 292.036923H736.098462a63.461744 63.461744 0 0 1-63.435488-63.435487V7.194256l284.566975 284.842667z" fill="#C2C5C7"/><path d="M196.883692 418.921026v63.435487H831.277949V418.921026H196.883692z m0 190.358974H831.277949v-63.448615H196.883692v63.435487z m0 126.844718H831.277949v-63.448615H196.883692v63.448615z m0 126.870974H831.277949v-63.40923H196.883692v63.40923z m348.921436-570.945641H196.883692v63.435487h348.921436v-63.448615z m0-126.884102H196.883692v63.435487h348.921436v-63.435487z" fill="#CCD0D2"/></svg>